<svg width="126" height="253" viewBox="0 0 126 253" fill="none" xmlns="http://www.w3.org/2000/svg">
<path d="M-0.500003 253C16.1122 253 32.5618 249.728 47.9095 243.371C63.2571 237.014 77.2024 227.696 88.949 215.949C100.696 204.202 110.014 190.257 116.371 174.909C122.728 159.562 126 143.112 126 126.5C126 109.888 122.728 93.4382 116.371 78.0905C110.014 62.7429 100.696 48.7976 88.949 37.051C77.2024 25.3044 63.2571 15.9865 47.9094 9.62923C32.5618 3.27201 16.1122 -6.25563e-06 -0.5 -5.52949e-06L-0.500003 63.4046C7.7858 63.4046 15.9905 65.0366 23.6456 68.2075C31.3006 71.3783 38.2562 76.0259 44.1152 81.8848C49.9741 87.7438 54.6217 94.6994 57.7925 102.354C60.9634 110.01 62.5954 118.214 62.5954 126.5C62.5954 134.786 60.9633 142.99 57.7925 150.646C54.6217 158.301 49.9741 165.256 44.1152 171.115C38.2562 176.974 31.3006 181.622 23.6455 184.793C15.9905 187.963 7.7858 189.595 -0.500001 189.595L-0.500003 253Z" fill="#F0F6FA" fill-opacity="0.8"/>
</svg>
