<svg width="180" height="50" viewBox="0 0 180 50" fill="none" xmlns="http://www.w3.org/2000/svg">
<rect y="0.5" width="180" height="49" rx="8" fill="#FF5C00"/>
<path d="M20.6219 24.4913V29.5H17.6914V15.2826H23.2393C24.3059 15.2826 25.2451 15.4797 26.0567 15.8739C26.8683 16.2623 27.4914 16.8159 27.9262 17.5348C28.361 18.2536 28.5784 19.071 28.5784 19.987C28.5784 21.3783 28.1001 22.4768 27.1436 23.2826C26.1929 24.0884 24.874 24.4913 23.1871 24.4913H20.6219ZM20.6219 22.1174H23.2393C24.0161 22.1174 24.6074 21.9348 25.0132 21.5696C25.419 21.2043 25.6219 20.6826 25.6219 20.0043C25.6219 19.3087 25.4161 18.7464 25.0045 18.3174C24.5929 17.8884 24.0277 17.6681 23.3088 17.6565H20.6219V22.1174ZM41.6799 25.3957L43.5929 15.2826H46.5059L43.3581 29.5H40.4103L38.0886 19.987L35.7755 29.5H32.8277L29.6712 15.2826H32.5929L34.5146 25.3783L36.8625 15.2826H39.3407L41.6799 25.3957ZM56.1082 26.5696H50.969L49.9951 29.5H46.8821L52.1777 15.2826H54.8908L60.2125 29.5H57.0995L56.1082 26.5696ZM51.7603 24.1957H55.3168L53.5342 18.8739L51.7603 24.1957ZM71.0547 28.8043C70.4865 28.8043 69.9532 28.7464 69.4547 28.6304C68.9561 28.5145 68.5213 28.3348 68.1503 28.0913C67.7793 27.8478 67.4865 27.5377 67.272 27.1609C67.0576 26.7841 66.9503 26.3319 66.9503 25.8043C66.9503 25.4043 67.0228 25.0275 67.1677 24.6739C67.3184 24.3145 67.5126 23.9812 67.7503 23.6739C67.9938 23.3609 68.2662 23.0768 68.5677 22.8217C68.8749 22.5609 69.1822 22.329 69.4894 22.1261C69.8025 21.9232 70.101 21.7522 70.3851 21.613C70.6749 21.4739 70.9271 21.3667 71.1416 21.2913C71.1358 21.2217 71.13 21.1522 71.1242 21.0826C71.1184 21.0072 71.1126 20.9174 71.1068 20.813C71.101 20.7087 71.0923 20.587 71.0807 20.4478C71.0691 20.3087 71.0547 20.1377 71.0373 19.9348L73.7503 19.3522C73.872 20.442 73.988 21.4362 74.0981 22.3348C74.2083 23.2333 74.3039 24.0072 74.3851 24.6565C74.472 25.3058 74.5416 25.8159 74.5938 26.187C74.6518 26.558 74.6865 26.7551 74.6981 26.7783C74.7851 26.9638 74.9126 27.0942 75.0807 27.1696C75.2547 27.2391 75.4894 27.2739 75.7851 27.2739H75.9764V30.0217H75.7242C75.4807 30.0217 75.1996 29.9986 74.8807 29.9522C74.5619 29.9116 74.2286 29.8101 73.8807 29.6478C73.6373 29.5319 73.4228 29.4014 73.2373 29.2565C73.0576 29.1058 72.8836 28.9174 72.7155 28.6913C72.4199 28.7319 72.1329 28.7609 71.8547 28.7783C71.5822 28.7957 71.3155 28.8043 71.0547 28.8043ZM71.0025 26.0739C71.1242 26.0739 71.2489 26.071 71.3764 26.0652C71.5097 26.0536 71.6373 26.042 71.759 26.0304C71.7416 25.9319 71.7242 25.8246 71.7068 25.7087C71.6952 25.587 71.6778 25.442 71.6547 25.2739C71.6373 25.1 71.6141 24.8942 71.5851 24.6565C71.5561 24.4188 71.5242 24.129 71.4894 23.787C71.2691 23.8971 71.0228 24.0304 70.7503 24.187C70.4778 24.3377 70.2199 24.5 69.9764 24.6739C69.7387 24.842 69.5387 25.0159 69.3764 25.1957C69.2141 25.3696 69.1329 25.5319 69.1329 25.6826C69.1329 25.758 69.1967 25.8217 69.3242 25.8739C69.4576 25.9203 69.6199 25.9609 69.8112 25.9957C70.0025 26.0246 70.2054 26.0449 70.4199 26.0565C70.6344 26.0681 70.8286 26.0739 71.0025 26.0739ZM75.623 27.2739H77.3882C77.8114 27.2739 78.2577 27.2449 78.7273 27.187C79.2027 27.129 79.6867 27.0507 80.1795 26.9522C80.6722 26.8536 81.1679 26.7377 81.6664 26.6043C82.165 26.4652 82.649 26.3174 83.1186 26.1609C83.594 26.0043 84.0462 25.8391 84.4751 25.6652C84.9099 25.4913 85.3099 25.3174 85.6751 25.1435C85.3157 25.0565 84.9157 24.9348 84.4751 24.7783C84.0346 24.6217 83.5882 24.4681 83.136 24.3174C82.6838 24.1667 82.2433 24.0391 81.8143 23.9348C81.3911 23.8246 81.0114 23.7725 80.6751 23.7783C80.4606 23.7841 80.2519 23.8304 80.049 23.9174C79.8519 23.9986 79.6664 24.1029 79.4925 24.2304C79.3244 24.3522 79.1708 24.4855 79.0317 24.6304C78.8983 24.7696 78.7824 24.9029 78.6838 25.0304C78.5853 25.1522 78.507 25.2565 78.449 25.3435L78.3708 25.4652L76.3099 24.2826C76.5418 23.8536 76.8201 23.442 77.1447 23.0478C77.4693 22.6478 77.823 22.2971 78.2056 21.9957C78.5882 21.6884 78.9882 21.4449 79.4056 21.2652C79.8288 21.0855 80.2519 20.9986 80.6751 21.0043C80.9882 21.0101 81.2983 21.0478 81.6056 21.1174C81.9186 21.187 82.2317 21.2768 82.5447 21.387C82.8577 21.4913 83.1737 21.6159 83.4925 21.7609C83.8114 21.9 84.1331 22.0449 84.4577 22.1957C84.7882 22.358 85.1534 22.5174 85.5534 22.6739C85.9592 22.8304 86.3795 22.9696 86.8143 23.0913C87.2548 23.213 87.7012 23.3116 88.1534 23.387C88.6114 23.4623 89.0577 23.5 89.4925 23.5L89.0404 26.0652C88.907 26.1232 88.7563 26.1928 88.5882 26.2739C88.4259 26.3493 88.2809 26.4188 88.1534 26.4826L87.9273 26.5957C88.0606 26.7522 88.2288 26.8768 88.4317 26.9696C88.6404 27.0623 88.8519 27.1319 89.0664 27.1783C89.2867 27.2188 89.4954 27.2449 89.6925 27.2565C89.8896 27.2681 90.049 27.2739 90.1708 27.2739H90.4664V30.0217H90.1708C89.6143 30.0217 89.0896 29.9725 88.5969 29.8739C88.1099 29.7754 87.6635 29.6333 87.2577 29.4478C86.8577 29.2565 86.5012 29.0275 86.1882 28.7609C85.8751 28.4884 85.6172 28.1812 85.4143 27.8391C84.8404 28.1174 84.2433 28.387 83.623 28.6478C83.0027 28.9087 82.3592 29.1435 81.6925 29.3522C81.0259 29.5551 80.3331 29.7174 79.6143 29.8391C78.9012 29.9609 78.1592 30.0217 77.3882 30.0217H75.623V27.2739ZM80.5534 20.1435L78.623 18.213L80.5534 16.2826L82.4838 18.213L80.5534 20.1435ZM90.2804 27.2739C90.5876 27.2739 90.8746 27.2246 91.1412 27.1261C91.4079 27.0217 91.6601 26.8246 91.8978 26.5348C92.1354 26.2449 92.3586 25.8362 92.5673 25.3087C92.776 24.7812 92.976 24.0913 93.1673 23.2391L95.4717 23.5696C95.4659 23.5986 95.4572 23.6362 95.4456 23.6826C95.4108 23.8275 95.3673 24.0333 95.3151 24.3C95.2688 24.5609 95.2224 24.8565 95.176 25.187C95.1354 25.5116 95.1151 25.8246 95.1151 26.1261C95.1209 26.4217 95.1557 26.6797 95.2195 26.9C95.2891 27.1145 95.4079 27.242 95.576 27.2826C95.7557 27.329 95.9296 27.2942 96.0978 27.1783C96.2659 27.0565 96.4253 26.8855 96.576 26.6652C96.7267 26.4391 96.8659 26.1783 96.9934 25.8826C97.1209 25.5812 97.2369 25.2739 97.3412 24.9609C97.4456 24.6478 97.5354 24.3406 97.6108 24.0391C97.6862 23.7377 97.7441 23.471 97.7847 23.2391L100.08 23.5696C100.069 23.7145 100.048 23.9087 100.019 24.1522C99.9905 24.3899 99.9673 24.6449 99.9499 24.9174C99.9325 25.1899 99.9238 25.4652 99.9238 25.7435C99.9296 26.0159 99.9615 26.2652 100.019 26.4913C100.077 26.7116 100.167 26.8942 100.289 27.0391C100.411 27.1783 100.579 27.2478 100.793 27.2478C100.985 27.2478 101.15 27.1841 101.289 27.0565C101.428 26.929 101.544 26.7638 101.637 26.5609C101.735 26.3522 101.814 26.1174 101.872 25.8565C101.93 25.5899 101.973 25.3203 102.002 25.0478C102.031 24.7754 102.046 24.5116 102.046 24.2565C102.046 23.9957 102.037 23.7667 102.019 23.5696L104.367 23.2391L104.654 25.6913C104.689 25.958 104.764 26.1899 104.88 26.387C104.996 26.5841 105.133 26.7493 105.289 26.8826C105.446 27.0101 105.611 27.1087 105.785 27.1783C105.959 27.242 106.124 27.2739 106.28 27.2739H106.559V30.0217H106.28C105.718 30.0217 105.188 29.9232 104.689 29.7261C104.191 29.529 103.759 29.1957 103.393 28.7261C103.359 28.7725 103.324 28.813 103.289 28.8478C103.254 28.8826 103.222 28.9174 103.193 28.9522V28.9435C102.88 29.2739 102.518 29.5348 102.106 29.7261C101.701 29.9232 101.263 30.0217 100.793 30.0217C100.266 30.0217 99.7789 29.9087 99.3325 29.6826C98.892 29.4565 98.5238 29.1493 98.2282 28.7609C97.8804 29.1435 97.4862 29.4536 97.0456 29.6913C96.605 29.929 96.1209 30.0478 95.5934 30.0478C95.1007 30.0478 94.6427 29.9377 94.2195 29.7174C93.7963 29.4971 93.4456 29.1957 93.1673 28.813C92.8543 29.2478 92.4659 29.558 92.0021 29.7435C91.5441 29.929 90.976 30.0217 90.2978 30.0217H90.1151V27.2739H90.2804ZM95.4804 23.5696H95.4717C95.4891 23.5232 95.492 23.5232 95.4804 23.5696ZM106.209 27.2739H107.383C107.626 27.2739 107.893 27.2536 108.183 27.213C108.478 27.1725 108.751 27.1087 109 27.0217C109.255 26.929 109.467 26.8072 109.635 26.6565C109.809 26.5 109.896 26.3087 109.896 26.0826C109.896 25.9435 109.855 25.7377 109.774 25.4652C109.693 25.187 109.586 24.8797 109.452 24.5435C109.319 24.2014 109.168 23.8449 109 23.4739C108.832 23.1029 108.664 22.7493 108.496 22.413L110.983 21.1783C111.145 21.5435 111.305 21.9319 111.461 22.3435C111.623 22.7551 111.768 23.1725 111.896 23.5957C112.023 24.0188 112.125 24.442 112.2 24.8652C112.281 25.2826 112.322 25.6826 112.322 26.0652C112.322 26.7609 112.206 27.358 111.974 27.8565C111.742 28.3551 111.418 28.7667 111 29.0913C110.583 29.4101 110.084 29.6449 109.505 29.7957C108.925 29.9464 108.287 30.0217 107.592 30.0217H106.209V27.2739ZM108.983 20.2652L107.052 18.3348L108.983 16.4043L110.913 18.3348L108.983 20.2652ZM120.092 25.9609C120.335 26.1174 120.619 26.2739 120.944 26.4304C121.274 26.587 121.611 26.7319 121.953 26.8652C122.3 26.9928 122.637 27.0971 122.961 27.1783C123.286 27.2594 123.567 27.3 123.805 27.3C123.938 27.3 124.121 27.2884 124.353 27.2652C124.59 27.242 124.822 27.1986 125.048 27.1348C125.28 27.0652 125.48 26.9696 125.648 26.8478C125.822 26.7261 125.915 26.5667 125.927 26.3696C125.932 26.1435 125.863 25.8884 125.718 25.6043C125.579 25.3203 125.387 25.0246 125.144 24.7174C124.906 24.4043 124.628 24.0913 124.309 23.7783C123.996 23.4594 123.671 23.1551 123.335 22.8652C122.999 22.5696 122.663 22.2971 122.327 22.0478C121.99 21.7928 121.68 21.5754 121.396 21.3957L122.935 19.1087C123.498 19.5029 124.054 19.9464 124.605 20.4391C125.161 20.9261 125.671 21.442 126.135 21.987C126.605 22.5319 127.011 23.0971 127.353 23.6826C127.7 24.2623 127.95 24.8478 128.1 25.4391C128.147 25.6072 128.179 25.7783 128.196 25.9522C128.214 26.1203 128.222 26.2826 128.222 26.4391C128.222 26.9783 128.118 27.4739 127.909 27.9261C127.7 28.3725 127.408 28.7609 127.031 29.0913C126.66 29.4159 126.214 29.6681 125.692 29.8478C125.17 30.0275 124.596 30.1174 123.97 30.1174C123.924 30.1174 123.877 30.1145 123.831 30.1087C123.785 30.1087 123.738 30.1087 123.692 30.1087C123.292 30.1087 122.88 30.0652 122.457 29.9783C122.04 29.8971 121.625 29.787 121.214 29.6478C120.808 29.5087 120.411 29.3464 120.022 29.1609C119.64 28.9754 119.283 28.7812 118.953 28.5783L120.092 25.9609ZM128.775 33.4739C129.592 33.3116 130.337 33.1058 131.01 32.8565C131.682 32.613 132.27 32.3377 132.775 32.0304C133.285 31.729 133.705 31.4072 134.036 31.0652C134.372 30.7232 134.61 30.3754 134.749 30.0217C134.499 30.0217 134.236 30.0159 133.957 30.0043C133.679 29.9986 133.45 29.9899 133.27 29.9783C132.696 29.9319 132.175 29.8217 131.705 29.6478C131.236 29.4797 130.83 29.2478 130.488 28.9522C130.152 28.6507 129.891 28.2855 129.705 27.8565C129.52 27.4275 129.427 26.9348 129.427 26.3783C129.427 26.0246 129.465 25.6623 129.54 25.2913C129.615 24.9203 129.723 24.558 129.862 24.2043C130.007 23.8507 130.183 23.5174 130.392 23.2043C130.607 22.8913 130.847 22.6159 131.114 22.3783C131.381 22.1406 131.673 21.9551 131.992 21.8217C132.317 21.6826 132.665 21.613 133.036 21.613C133.476 21.613 133.882 21.6942 134.253 21.8565C134.624 22.013 134.963 22.2275 135.27 22.5C135.583 22.7725 135.859 23.0942 136.096 23.4652C136.34 23.8304 136.549 24.2246 136.723 24.6478C136.902 25.0652 137.047 25.5 137.157 25.9522C137.273 26.3986 137.354 26.8391 137.401 27.2739H137.775V30.0217H137.218C136.992 30.8739 136.63 31.6449 136.131 32.3348C135.638 33.0304 135.047 33.6362 134.357 34.1522C133.667 34.6681 132.899 35.0942 132.053 35.4304C131.212 35.7667 130.334 36.0043 129.418 36.1435L128.775 33.4739ZM133.036 24.3696C132.914 24.3464 132.775 24.3899 132.618 24.5C132.462 24.6043 132.317 24.7493 132.183 24.9348C132.05 25.1145 131.937 25.3145 131.844 25.5348C131.752 25.7551 131.708 25.9667 131.714 26.1696C131.72 26.3667 131.783 26.529 131.905 26.6565C132.027 26.7841 132.183 26.8913 132.375 26.9783C132.566 27.0594 132.781 27.1203 133.018 27.1609C133.262 27.2014 133.502 27.2304 133.74 27.2478C133.978 27.2652 134.201 27.2739 134.41 27.2739H134.949C134.862 26.9145 134.757 26.5696 134.636 26.2391C134.52 25.9087 134.383 25.613 134.227 25.3522C134.07 25.0913 133.894 24.8739 133.696 24.7C133.499 24.5261 133.279 24.4159 133.036 24.3696ZM137.42 27.2739H137.985C138.246 27.2739 138.466 27.2333 138.646 27.1522C138.831 27.0652 138.982 26.9464 139.098 26.7957C139.22 26.6391 139.307 26.4565 139.359 26.2478C139.417 26.0391 139.446 25.8101 139.446 25.5609C139.452 25.2188 139.455 24.8043 139.455 24.3174C139.455 23.8246 139.452 23.2971 139.446 22.7348C139.44 22.1667 139.431 21.5812 139.42 20.9783C139.408 20.3696 139.394 19.7783 139.376 19.2043C139.359 18.6246 139.342 18.0768 139.324 17.5609C139.307 17.0391 139.289 16.5841 139.272 16.1957L142.037 15.6913L142.133 26.1174C142.133 26.4768 142.223 26.7609 142.402 26.9696C142.588 27.1725 142.86 27.2739 143.22 27.2739H143.411V30.0217H143.22C142.982 30.0275 142.742 30.0072 142.498 29.9609C142.26 29.9145 142.034 29.8478 141.82 29.7609C141.605 29.6797 141.414 29.5812 141.246 29.4652C141.078 29.3493 140.947 29.2246 140.855 29.0913C140.733 29.242 140.591 29.3754 140.429 29.4913C140.266 29.6072 140.069 29.7029 139.837 29.7783C139.611 29.8594 139.344 29.9203 139.037 29.9609C138.73 30.0014 138.373 30.0217 137.968 30.0217H137.42V27.2739ZM143.064 27.2739H144.238C144.482 27.2739 144.748 27.2536 145.038 27.213C145.334 27.1725 145.606 27.1087 145.856 27.0217C146.111 26.929 146.322 26.8072 146.49 26.6565C146.664 26.5 146.751 26.3087 146.751 26.0826C146.751 25.9435 146.711 25.7377 146.63 25.4652C146.548 25.187 146.441 24.8797 146.308 24.5435C146.175 24.2014 146.024 23.8449 145.856 23.4739C145.688 23.1029 145.519 22.7493 145.351 22.413L147.838 21.1783C148.001 21.5435 148.16 21.9319 148.317 22.3435C148.479 22.7551 148.624 23.1725 148.751 23.5957C148.879 24.0188 148.98 24.442 149.056 24.8652C149.137 25.2826 149.177 25.6826 149.177 26.0652C149.177 26.7609 149.061 27.358 148.83 27.8565C148.598 28.3551 148.273 28.7667 147.856 29.0913C147.438 29.4101 146.94 29.6449 146.36 29.7957C145.78 29.9464 145.143 30.0217 144.447 30.0217H143.064V27.2739ZM145.838 20.2652L143.908 18.3348L145.838 16.4043L147.769 18.3348L145.838 20.2652ZM150.771 30.0478C150.8 29.5725 150.829 29.0797 150.858 28.5696C150.887 28.0594 150.91 27.5551 150.927 27.0565C150.951 26.558 150.965 26.0739 150.971 25.6043C150.977 25.1348 150.971 24.7029 150.953 24.3087C150.919 23.4855 150.884 22.7638 150.849 22.1435C150.82 21.5174 150.788 20.9638 150.753 20.4826C150.724 20.0014 150.693 19.5812 150.658 19.2217C150.629 18.8565 150.597 18.5232 150.562 18.2217C150.527 17.9203 150.49 17.6391 150.449 17.3783C150.409 17.1116 150.365 16.8362 150.319 16.5522L153.006 15.6652C153.133 16.442 153.235 17.2246 153.31 18.013C153.391 18.8014 153.452 19.558 153.493 20.2826C153.533 21.0014 153.559 21.671 153.571 22.2913C153.588 22.9116 153.597 23.442 153.597 23.8826C153.597 24.2826 153.594 24.7145 153.588 25.1783C153.588 25.642 153.582 26.1232 153.571 26.6217C153.565 27.1203 153.553 27.6246 153.536 28.1348C153.519 28.6449 153.493 29.1435 153.458 29.6304L150.771 30.0478ZM155.561 25.9609C155.804 26.1174 156.088 26.2739 156.413 26.4304C156.743 26.587 157.079 26.7319 157.421 26.8652C157.769 26.9928 158.105 27.0971 158.43 27.1783C158.755 27.2594 159.036 27.3 159.274 27.3C159.407 27.3 159.59 27.2884 159.821 27.2652C160.059 27.242 160.291 27.1986 160.517 27.1348C160.749 27.0652 160.949 26.9696 161.117 26.8478C161.291 26.7261 161.384 26.5667 161.395 26.3696C161.401 26.1435 161.332 25.8884 161.187 25.6043C161.047 25.3203 160.856 25.0246 160.613 24.7174C160.375 24.4043 160.097 24.0913 159.778 23.7783C159.465 23.4594 159.14 23.1551 158.804 22.8652C158.468 22.5696 158.132 22.2971 157.795 22.0478C157.459 21.7928 157.149 21.5754 156.865 21.3957L158.404 19.1087C158.966 19.5029 159.523 19.9464 160.074 20.4391C160.63 20.9261 161.14 21.442 161.604 21.987C162.074 22.5319 162.479 23.0971 162.821 23.6826C163.169 24.2623 163.419 24.8478 163.569 25.4391C163.616 25.6072 163.647 25.7783 163.665 25.9522C163.682 26.1203 163.691 26.2826 163.691 26.4391C163.691 26.9783 163.587 27.4739 163.378 27.9261C163.169 28.3725 162.876 28.7609 162.5 29.0913C162.129 29.4159 161.682 29.6681 161.161 29.8478C160.639 30.0275 160.065 30.1174 159.439 30.1174C159.392 30.1174 159.346 30.1145 159.3 30.1087C159.253 30.1087 159.207 30.1087 159.161 30.1087C158.761 30.1087 158.349 30.0652 157.926 29.9783C157.508 29.8971 157.094 29.787 156.682 29.6478C156.276 29.5087 155.879 29.3464 155.491 29.1609C155.108 28.9754 154.752 28.7812 154.421 28.5783L155.561 25.9609Z" fill="#FCF6F2"/>
</svg>
