<svg width="25" height="22" viewBox="0 0 25 22" fill="none" xmlns="http://www.w3.org/2000/svg">
<path d="M23.7162 17.33C23.7162 17.69 23.6262 18.06 23.435 18.42C23.2437 18.78 22.9963 19.12 22.67 19.44C22.1188 19.98 21.5112 20.37 20.825 20.62C20.15 20.87 19.4188 21 18.6313 21C17.4838 21 16.2575 20.76 14.9637 20.27C13.67 19.78 12.3762 19.12 11.0938 18.29C9.8 17.45 8.57375 16.52 7.40375 15.49C6.245 14.45 5.19875 13.36 4.265 12.22C3.3425 11.08 2.6 9.94 2.06 8.81C1.52 7.67 1.25 6.58 1.25 5.54C1.25 4.86 1.385 4.21 1.655 3.61C1.925 3 2.3525 2.44 2.94875 1.94C3.66875 1.31 4.45625 1 5.28875 1C5.60375 1 5.91875 1.06 6.2 1.18C6.4925 1.3 6.75125 1.48 6.95375 1.74L9.56375 5.01C9.76625 5.26 9.9125 5.49 10.0137 5.71C10.115 5.92 10.1713 6.13 10.1713 6.32C10.1713 6.56 10.0925 6.8 9.935 7.03C9.78875 7.26 9.575 7.5 9.305 7.74L8.45 8.53C8.32625 8.64 8.27 8.77 8.27 8.93C8.27 9.01 8.28125 9.08 8.30375 9.16C8.3375 9.24 8.37125 9.3 8.39375 9.36C8.59625 9.69 8.945 10.12 9.44 10.64C9.94625 11.16 10.4862 11.69 11.0712 12.22C11.6787 12.75 12.2637 13.24 12.86 13.69C13.445 14.13 13.9287 14.43 14.3112 14.61C14.3675 14.63 14.435 14.66 14.5137 14.69C14.6037 14.72 14.6937 14.73 14.795 14.73C14.9862 14.73 15.1325 14.67 15.2562 14.56L16.1113 13.81C16.3925 13.56 16.6625 13.37 16.9213 13.25C17.18 13.11 17.4387 13.04 17.72 13.04C17.9337 13.04 18.1588 13.08 18.4062 13.17C18.6537 13.26 18.9125 13.39 19.1938 13.56L22.9175 15.91C23.21 16.09 23.4125 16.3 23.5362 16.55C23.6487 16.8 23.7162 17.05 23.7162 17.33Z" stroke="#041829" stroke-opacity="0.64" stroke-width="1.5" stroke-miterlimit="10"/>
</svg>
